<?xml version="1.0" encoding="utf-8"?>
<!-- Generator: Adobe Illustrator 16.0.4, SVG Export Plug-In . SVG Version: 6.00 Build 0)  -->
<!DOCTYPE svg PUBLIC "-//W3C//DTD SVG 1.1//EN" "http://www.w3.org/Graphics/SVG/1.1/DTD/svg11.dtd">
<svg version="1.1" id="Ebene_1" xmlns="http://www.w3.org/2000/svg" xmlns:xlink="http://www.w3.org/1999/xlink" x="0px" y="0px"
	 width="207px" height="45px" viewBox="0 0 207 45" enable-background="new 0 0 207 45" xml:space="preserve">
<path fill="#9EBF39" d="M201.688,0H5.312C2.384,0,0,2.387,0,5.319v34.369C0,42.618,2.384,45,5.312,45h196.374
	c2.928,0,5.315-2.382,5.313-5.312V5.319C207,2.387,204.611,0,201.688,0z"/>
<g>
	<path fill="#FFFFFF" d="M43.702,17.137h2.621c1.498,0,2.666,0.404,3.505,1.215c0.839,0.81,1.259,2.024,1.259,3.645
		c0,0.811-0.108,1.524-0.323,2.146c-0.214,0.621-0.523,1.139-0.928,1.553c-0.404,0.414-0.894,0.728-1.468,0.938
		c-0.574,0.21-1.226,0.315-1.955,0.315h-2.711V17.137z M46.204,25.536c0.999,0,1.766-0.287,2.3-0.862
		c0.533-0.574,0.801-1.468,0.801-2.678c0-1.2-0.271-2.075-0.809-2.625c-0.54-0.55-1.303-0.825-2.292-0.825H45.44v6.99H46.204z"/>
	<path fill="#FFFFFF" d="M52.436,23.271c0-0.61,0.094-1.155,0.283-1.636c0.19-0.479,0.448-0.886,0.771-1.216
		c0.325-0.33,0.696-0.582,1.115-0.757c0.42-0.175,0.859-0.263,1.318-0.263c0.46,0,0.901,0.088,1.326,0.263
		c0.424,0.175,0.796,0.427,1.115,0.757c0.32,0.33,0.577,0.735,0.771,1.216c0.194,0.479,0.292,1.024,0.292,1.636
		c0,0.61-0.098,1.154-0.292,1.635c-0.194,0.479-0.451,0.885-0.771,1.215c-0.319,0.33-0.691,0.58-1.115,0.75
		c-0.425,0.17-0.866,0.255-1.326,0.255c-0.459,0-0.898-0.085-1.318-0.255c-0.419-0.17-0.79-0.42-1.115-0.75
		c-0.323-0.33-0.581-0.734-0.771-1.215C52.529,24.427,52.436,23.882,52.436,23.271z M54.202,23.271c0,0.739,0.152,1.332,0.456,1.776
		c0.305,0.445,0.727,0.667,1.266,0.667s0.964-0.222,1.273-0.667c0.309-0.444,0.465-1.037,0.465-1.776
		c0-0.75-0.155-1.349-0.465-1.793c-0.31-0.444-0.734-0.667-1.273-0.667s-0.961,0.223-1.266,0.667
		C54.354,21.924,54.202,22.521,54.202,23.271z"/>
	<path fill="#FFFFFF" d="M60.312,19.581h1.738l0.883,3.825c0.08,0.351,0.148,0.699,0.203,1.05c0.055,0.351,0.117,0.705,0.188,1.065
		h0.061c0.068-0.36,0.142-0.715,0.216-1.065c0.075-0.351,0.158-0.699,0.248-1.05l0.957-3.825h1.574l0.973,3.825
		c0.09,0.351,0.175,0.699,0.255,1.05s0.159,0.705,0.239,1.065h0.061c0.069-0.36,0.134-0.715,0.194-1.065
		c0.061-0.351,0.125-0.699,0.195-1.05l0.884-3.825h1.616l-1.872,7.364h-2.052l-0.854-3.435c-0.08-0.351-0.154-0.698-0.225-1.043
		c-0.071-0.345-0.145-0.713-0.225-1.103h-0.061c-0.069,0.39-0.14,0.76-0.208,1.11c-0.07,0.35-0.146,0.7-0.226,1.05l-0.839,3.42
		H62.26L60.312,19.581z"/>
	<path fill="#FFFFFF" d="M72.249,19.581h1.424l0.118,0.99h0.061c0.33-0.32,0.687-0.595,1.071-0.825
		c0.384-0.229,0.83-0.345,1.341-0.345c0.788,0,1.361,0.253,1.722,0.758c0.359,0.505,0.539,1.228,0.539,2.167v4.619h-1.722v-4.395
		c0-0.61-0.09-1.04-0.271-1.29c-0.18-0.25-0.474-0.375-0.884-0.375c-0.319,0-0.602,0.077-0.846,0.232
		c-0.245,0.155-0.521,0.382-0.832,0.683v5.145h-1.722L72.249,19.581L72.249,19.581z"/>
	<path fill="#FFFFFF" d="M80.637,16.356h1.722v8.791c0,0.209,0.04,0.356,0.12,0.441s0.165,0.127,0.254,0.127c0.04,0,0.078,0,0.113,0
		c0.034,0,0.087-0.01,0.156-0.029l0.226,1.291c-0.229,0.1-0.535,0.148-0.914,0.148c-0.619,0-1.053-0.186-1.303-0.555
		c-0.25-0.37-0.374-0.875-0.374-1.516V16.356z"/>
	<path fill="#FFFFFF" d="M84.216,23.271c0-0.61,0.095-1.155,0.284-1.636c0.189-0.479,0.447-0.886,0.771-1.216
		s0.696-0.582,1.116-0.757c0.419-0.175,0.857-0.263,1.318-0.263c0.458,0,0.9,0.088,1.325,0.263c0.424,0.175,0.796,0.427,1.116,0.757
		c0.318,0.33,0.575,0.735,0.771,1.216c0.194,0.479,0.292,1.024,0.292,1.636c0,0.61-0.098,1.154-0.292,1.635
		c-0.195,0.479-0.452,0.885-0.771,1.215c-0.32,0.33-0.692,0.58-1.116,0.75c-0.425,0.17-0.867,0.255-1.325,0.255
		c-0.461,0-0.899-0.085-1.318-0.255c-0.42-0.17-0.792-0.42-1.116-0.75s-0.582-0.734-0.771-1.215
		C84.311,24.427,84.216,23.882,84.216,23.271z M85.982,23.271c0,0.739,0.152,1.332,0.458,1.776c0.304,0.445,0.725,0.667,1.266,0.667
		c0.538,0,0.963-0.222,1.272-0.667c0.309-0.444,0.465-1.037,0.465-1.776c0-0.75-0.156-1.349-0.465-1.793
		c-0.31-0.444-0.734-0.667-1.272-0.667c-0.541,0-0.962,0.223-1.266,0.667C86.135,21.924,85.982,22.521,85.982,23.271z"/>
	<path fill="#FFFFFF" d="M92.423,24.966c0-0.789,0.346-1.399,1.034-1.829c0.688-0.431,1.787-0.729,3.296-0.9
		c0-0.189-0.025-0.372-0.076-0.548c-0.05-0.175-0.127-0.33-0.232-0.465c-0.104-0.135-0.24-0.24-0.403-0.314
		c-0.166-0.075-0.373-0.113-0.622-0.113c-0.369,0-0.726,0.07-1.071,0.21c-0.345,0.141-0.677,0.311-0.996,0.511l-0.628-1.155
		c0.408-0.26,0.865-0.485,1.37-0.675c0.504-0.19,1.05-0.285,1.64-0.285c0.929,0,1.618,0.272,2.066,0.817
		c0.45,0.545,0.675,1.333,0.675,2.362v4.365h-1.408l-0.135-0.811h-0.045c-0.329,0.279-0.683,0.516-1.057,0.704
		c-0.374,0.19-0.78,0.285-1.22,0.285c-0.649,0-1.176-0.196-1.581-0.592C92.626,26.139,92.423,25.616,92.423,24.966z M94.101,24.831
		c0,0.33,0.098,0.569,0.292,0.721c0.195,0.149,0.447,0.226,0.757,0.226c0.3,0,0.573-0.07,0.823-0.211
		c0.249-0.14,0.51-0.34,0.78-0.601v-1.649c-0.501,0.061-0.92,0.141-1.259,0.24c-0.34,0.101-0.612,0.213-0.816,0.338
		c-0.205,0.125-0.353,0.268-0.442,0.428C94.147,24.482,94.101,24.65,94.101,24.831z"/>
	<path fill="#FFFFFF" d="M100.121,23.271c0-0.602,0.087-1.142,0.263-1.621c0.175-0.48,0.406-0.885,0.696-1.215
		c0.289-0.33,0.622-0.585,0.996-0.766c0.375-0.18,0.761-0.27,1.16-0.27c0.42,0,0.774,0.072,1.063,0.218
		c0.29,0.145,0.579,0.343,0.869,0.592l-0.061-1.185v-2.67h1.723v10.59h-1.423l-0.12-0.795h-0.061c-0.27,0.27-0.584,0.5-0.942,0.688
		c-0.36,0.19-0.739,0.285-1.138,0.285c-0.929,0-1.666-0.337-2.21-1.013C100.394,25.438,100.121,24.491,100.121,23.271z
		 M101.904,23.256c0,0.801,0.141,1.408,0.426,1.823c0.284,0.415,0.697,0.622,1.236,0.622c0.549,0,1.062-0.274,1.543-0.825v-3.435
		c-0.26-0.23-0.514-0.39-0.758-0.48s-0.492-0.135-0.741-0.135c-0.479,0-0.884,0.21-1.213,0.63
		C102.068,21.876,101.904,22.477,101.904,23.256z"/>
	<path fill="#FFFFFF" d="M115.848,17.722c-0.271-0.12-0.539-0.181-0.81-0.181c-0.619,0-0.929,0.415-0.929,1.245v0.795h1.438v1.365
		h-1.438v6h-1.723v-6h-0.988v-1.29l0.988-0.075v-0.765c0-0.38,0.045-0.732,0.135-1.058c0.09-0.325,0.234-0.604,0.435-0.84
		c0.2-0.235,0.453-0.418,0.757-0.548c0.305-0.13,0.678-0.194,1.115-0.194c0.26,0,0.508,0.024,0.74,0.074
		c0.236,0.051,0.438,0.11,0.606,0.181L115.848,17.722z"/>
	<path fill="#FFFFFF" d="M116.207,23.271c0-0.61,0.094-1.155,0.284-1.636c0.188-0.479,0.446-0.886,0.771-1.216
		s0.695-0.582,1.115-0.757c0.419-0.175,0.857-0.263,1.318-0.263c0.459,0,0.9,0.088,1.326,0.263c0.422,0.175,0.795,0.427,1.114,0.757
		s0.576,0.735,0.771,1.216c0.192,0.479,0.291,1.024,0.291,1.636c0,0.61-0.099,1.154-0.291,1.635
		c-0.195,0.479-0.452,0.885-0.771,1.215s-0.692,0.58-1.114,0.75c-0.426,0.17-0.867,0.255-1.326,0.255
		c-0.461,0-0.899-0.085-1.318-0.255c-0.42-0.17-0.791-0.42-1.115-0.75s-0.582-0.734-0.771-1.215
		C116.301,24.427,116.207,23.882,116.207,23.271z M117.975,23.271c0,0.739,0.151,1.332,0.457,1.776
		c0.303,0.445,0.727,0.667,1.266,0.667s0.963-0.222,1.273-0.667c0.309-0.444,0.463-1.037,0.463-1.776
		c0-0.75-0.154-1.349-0.463-1.793c-0.312-0.444-0.734-0.667-1.273-0.667s-0.963,0.223-1.266,0.667
		C118.126,21.924,117.975,22.521,117.975,23.271z"/>
	<path fill="#FFFFFF" d="M124.909,19.581h1.421l0.121,1.306h0.06c0.261-0.48,0.574-0.848,0.943-1.103
		c0.369-0.256,0.748-0.383,1.139-0.383c0.349,0,0.63,0.05,0.839,0.15l-0.3,1.5c-0.13-0.04-0.251-0.07-0.358-0.091
		c-0.109-0.02-0.246-0.029-0.404-0.029c-0.29,0-0.596,0.112-0.914,0.337c-0.32,0.226-0.594,0.618-0.823,1.178v4.5h-1.722
		L124.909,19.581L124.909,19.581z"/>
	<path fill="#FFFFFF" d="M138.268,24.291h-3.295l-0.764,2.654h-1.768l3.189-9.81h2.037l3.189,9.81h-1.826L138.268,24.291z
		 M137.878,22.927l-0.344-1.2c-0.16-0.521-0.312-1.056-0.457-1.605c-0.146-0.55-0.288-1.095-0.427-1.635h-0.062
		c-0.14,0.55-0.278,1.098-0.419,1.643s-0.29,1.077-0.449,1.598l-0.345,1.2h2.502V22.927z"/>
	<path fill="#FFFFFF" d="M141.922,19.581h1.424l0.119,0.99h0.061c0.328-0.32,0.686-0.595,1.07-0.825
		c0.385-0.229,0.831-0.345,1.34-0.345c0.789,0,1.363,0.253,1.723,0.758c0.361,0.505,0.54,1.228,0.54,2.167v4.619h-1.724v-4.395
		c0-0.61-0.09-1.04-0.271-1.29c-0.179-0.25-0.474-0.375-0.884-0.375c-0.319,0-0.6,0.077-0.846,0.232
		c-0.244,0.155-0.521,0.382-0.832,0.683v5.145h-1.722L141.922,19.581L141.922,19.581z"/>
	<path fill="#FFFFFF" d="M149.859,23.271c0-0.602,0.088-1.142,0.263-1.621c0.175-0.48,0.407-0.885,0.696-1.215
		s0.621-0.585,0.996-0.766c0.375-0.18,0.761-0.27,1.16-0.27c0.42,0,0.774,0.072,1.062,0.218c0.291,0.145,0.579,0.343,0.87,0.592
		l-0.062-1.185v-2.67h1.723v10.59h-1.424l-0.119-0.795h-0.061c-0.27,0.27-0.583,0.5-0.943,0.688
		c-0.358,0.19-0.738,0.285-1.138,0.285c-0.929,0-1.665-0.337-2.21-1.013C150.132,25.438,149.859,24.491,149.859,23.271z
		 M151.643,23.256c0,0.801,0.143,1.408,0.426,1.823c0.285,0.415,0.697,0.622,1.236,0.622c0.549,0,1.063-0.274,1.543-0.825v-3.435
		c-0.26-0.23-0.512-0.39-0.757-0.48s-0.491-0.135-0.741-0.135c-0.479,0-0.883,0.21-1.213,0.63
		C151.809,21.876,151.643,22.477,151.643,23.256z"/>
	<path fill="#FFFFFF" d="M158.756,19.581h1.424l0.118,1.306h0.062c0.26-0.48,0.572-0.848,0.943-1.103
		c0.368-0.256,0.749-0.383,1.139-0.383c0.349,0,0.629,0.05,0.838,0.15l-0.299,1.5c-0.131-0.04-0.25-0.07-0.359-0.091
		c-0.109-0.02-0.245-0.029-0.405-0.029c-0.288,0-0.594,0.112-0.911,0.337c-0.32,0.226-0.596,0.618-0.826,1.178v4.5h-1.722
		L158.756,19.581L158.756,19.581z"/>
	<path fill="#FFFFFF" d="M163.714,23.271c0-0.61,0.095-1.155,0.284-1.636c0.189-0.479,0.447-0.886,0.771-1.216
		c0.323-0.33,0.695-0.582,1.115-0.757c0.42-0.175,0.857-0.263,1.318-0.263c0.458,0,0.9,0.088,1.324,0.263
		c0.425,0.175,0.797,0.427,1.117,0.757c0.317,0.33,0.574,0.735,0.771,1.216c0.194,0.479,0.292,1.024,0.292,1.636
		c0,0.61-0.098,1.154-0.292,1.635c-0.195,0.479-0.452,0.885-0.771,1.215c-0.32,0.33-0.692,0.58-1.117,0.75
		c-0.424,0.17-0.866,0.255-1.324,0.255c-0.461,0-0.898-0.085-1.318-0.255s-0.792-0.42-1.115-0.75
		c-0.324-0.33-0.582-0.734-0.771-1.215C163.809,24.427,163.714,23.882,163.714,23.271z M165.48,23.271
		c0,0.739,0.151,1.332,0.457,1.776c0.305,0.445,0.726,0.667,1.267,0.667c0.538,0,0.963-0.222,1.272-0.667
		c0.309-0.444,0.465-1.037,0.465-1.776c0-0.75-0.156-1.349-0.465-1.793c-0.311-0.444-0.734-0.667-1.272-0.667
		c-0.541,0-0.962,0.223-1.267,0.667C165.633,21.924,165.48,22.521,165.48,23.271z"/>
	<path fill="#FFFFFF" d="M173.284,18.291c-0.31,0-0.563-0.09-0.765-0.27c-0.199-0.181-0.299-0.415-0.299-0.705
		s0.1-0.527,0.299-0.713c0.199-0.185,0.455-0.277,0.765-0.277s0.563,0.093,0.764,0.277c0.2,0.186,0.3,0.423,0.3,0.713
		s-0.1,0.524-0.3,0.705C173.848,18.201,173.594,18.291,173.284,18.291z M172.415,19.581h1.724v7.364h-1.724V19.581z"/>
	<path fill="#FFFFFF" d="M175.891,23.271c0-0.602,0.088-1.142,0.262-1.621c0.175-0.48,0.406-0.885,0.697-1.215
		c0.289-0.33,0.621-0.585,0.994-0.766c0.374-0.18,0.762-0.27,1.161-0.27c0.42,0,0.772,0.072,1.063,0.218
		c0.289,0.145,0.578,0.343,0.867,0.592l-0.06-1.185v-2.67h1.724v10.59h-1.424l-0.119-0.795h-0.061c-0.27,0.27-0.585,0.5-0.943,0.688
		c-0.359,0.19-0.738,0.285-1.14,0.285c-0.929,0-1.664-0.337-2.208-1.013C176.162,25.438,175.891,24.491,175.891,23.271z
		 M177.672,23.256c0,0.801,0.143,1.408,0.428,1.823c0.284,0.415,0.696,0.622,1.235,0.622c0.549,0,1.063-0.274,1.542-0.825v-3.435
		c-0.26-0.23-0.512-0.39-0.757-0.48c-0.244-0.09-0.492-0.135-0.74-0.135c-0.479,0-0.885,0.21-1.214,0.63
		S177.672,22.477,177.672,23.256z"/>
</g>
<g>
	<path fill="#FFFFFF" d="M27.874,27.82c0,0.109,0,0.195,0,0.283c0,0.908,0.001,1.818,0,2.728c0,0.616-0.359,1.134-0.928,1.336
		c-0.8,0.285-1.672-0.259-1.788-1.114c-0.011-0.091-0.016-0.183-0.016-0.273c-0.001-0.942-0.002-1.889,0.001-2.83
		c0-0.1-0.022-0.131-0.124-0.131c-0.528,0.006-1.06,0.006-1.589,0c-0.101,0-0.135,0.025-0.135,0.135
		c0.005,0.955,0.003,1.908,0.004,2.863c0.001,0.599-0.345,1.135-0.86,1.33c-0.928,0.352-1.859-0.304-1.868-1.318
		c-0.007-0.936-0.001-1.872-0.002-2.809c0-0.227,0.024-0.194-0.188-0.199c-0.331-0.006-0.66,0-0.99-0.021
		c-0.549-0.036-1.086-0.489-1.235-1.034c-0.043-0.156-0.068-0.322-0.068-0.486c-0.005-2.946-0.004-5.896-0.004-8.843
		c0-0.15,0-0.151,0.146-0.151c3.994,0,7.99,0,11.984,0c0.148,0,0.149,0.001,0.149,0.146c0,2.949-0.005,5.898,0.003,8.846
		c0.001,0.688-0.455,1.352-1.197,1.51c-0.148,0.031-0.305,0.031-0.459,0.033C28.438,27.824,28.164,27.82,27.874,27.82z"/>
	<path fill="#FFFFFF" d="M21.206,11.786c-0.081-0.151-0.156-0.296-0.233-0.438c-0.224-0.416-0.447-0.829-0.672-1.244
		c-0.013-0.021-0.023-0.047-0.034-0.07c-0.05-0.115-0.024-0.215,0.07-0.268c0.095-0.052,0.19-0.02,0.253,0.095
		c0.287,0.527,0.571,1.055,0.857,1.583c0.029,0.057,0.061,0.112,0.096,0.175c1.78-0.747,3.562-0.751,5.355,0.002
		c0.089-0.164,0.181-0.333,0.271-0.501c0.223-0.41,0.443-0.822,0.669-1.23c0.031-0.059,0.093-0.119,0.151-0.134
		c0.052-0.012,0.148,0.023,0.169,0.067c0.031,0.061,0.037,0.16,0.009,0.22c-0.137,0.276-0.288,0.544-0.434,0.814
		c-0.156,0.292-0.313,0.582-0.472,0.872c-0.008,0.018-0.013,0.035-0.021,0.059c0.183,0.111,0.363,0.216,0.537,0.332
		c1.225,0.822,2.059,1.936,2.435,3.39c0.099,0.385,0.144,0.778,0.153,1.177c0.002,0.111-0.054,0.109-0.132,0.109
		c-2.178,0-4.354,0-6.531,0c-1.824,0-3.65,0-5.474,0c-0.169,0-0.169,0-0.158-0.168c0.122-2.099,1.142-3.628,2.886-4.693
		C21.034,11.888,21.112,11.843,21.206,11.786z"/>
	<path fill="#FFFFFF" d="M30.858,21.315c0-0.969-0.001-1.939,0-2.908c0-0.818,0.664-1.435,1.463-1.382
		c0.669,0.044,1.264,0.632,1.261,1.413c-0.006,1.917,0,3.834-0.006,5.751c0,0.158-0.026,0.319-0.069,0.472
		c-0.148,0.528-0.677,0.929-1.217,0.944c-0.607,0.017-1.047-0.258-1.308-0.807c-0.079-0.168-0.117-0.372-0.119-0.562
		C30.852,23.266,30.858,22.291,30.858,21.315z"/>
	<path fill="#FFFFFF" d="M14.863,21.312c0-0.957-0.002-1.916,0-2.875c0.001-0.622,0.321-1.12,0.897-1.331
		c0.812-0.299,1.651,0.211,1.8,1.042c0.021,0.119,0.024,0.243,0.024,0.364c0.002,1.887,0,3.773,0,5.66
		c0,0.65-0.307,1.139-0.906,1.357c-0.683,0.25-1.442-0.076-1.718-0.795c-0.064-0.174-0.093-0.371-0.094-0.56
		C14.858,23.223,14.863,22.268,14.863,21.312z"/>
</g>
</svg>
