<?xml version="1.0" encoding="utf-8"?>
<!-- Generator: Adobe Illustrator 16.0.4, SVG Export Plug-In . SVG Version: 6.00 Build 0)  -->
<!DOCTYPE svg PUBLIC "-//W3C//DTD SVG 1.1//EN" "http://www.w3.org/Graphics/SVG/1.1/DTD/svg11.dtd">
<svg version="1.1" id="Ebene_1" xmlns="http://www.w3.org/2000/svg" xmlns:xlink="http://www.w3.org/1999/xlink" x="0px" y="0px"
	 width="207px" height="45px" viewBox="0 0 207 45" enable-background="new 0 0 207 45" xml:space="preserve">
<path fill="#6B6B6B" d="M201.688,0H5.313C2.384,0,0,2.387,0,5.319v34.369C0,42.618,2.384,45,5.313,45h196.375
	c2.929,0,5.315-2.382,5.312-5.312V5.319C207,2.387,204.613,0,201.688,0z"/>
<g>
	<path fill="#FFFFFF" d="M43.704,17.136h2.621c1.498,0,2.666,0.405,3.504,1.215c0.839,0.81,1.258,2.025,1.258,3.645
		c0,0.81-0.107,1.525-0.322,2.146c-0.215,0.621-0.524,1.137-0.928,1.551c-0.405,0.416-0.894,0.729-1.468,0.938
		c-0.574,0.21-1.226,0.315-1.955,0.315h-2.711L43.704,17.136L43.704,17.136z M46.205,25.536c0.999,0,1.765-0.287,2.299-0.862
		c0.534-0.574,0.801-1.468,0.801-2.678c0-1.2-0.27-2.075-0.809-2.625c-0.539-0.55-1.303-0.825-2.292-0.825H45.44v6.99H46.205z"/>
	<path fill="#FFFFFF" d="M52.436,23.271c0-0.61,0.095-1.155,0.284-1.636c0.19-0.479,0.447-0.885,0.771-1.215
		c0.324-0.33,0.696-0.583,1.116-0.758c0.419-0.175,0.859-0.262,1.318-0.262s0.901,0.087,1.325,0.262
		c0.424,0.175,0.796,0.428,1.116,0.758c0.32,0.33,0.577,0.735,0.771,1.215c0.194,0.48,0.292,1.025,0.292,1.636
		c0,0.609-0.097,1.154-0.292,1.635c-0.195,0.479-0.452,0.885-0.771,1.215c-0.319,0.33-0.691,0.58-1.116,0.75
		s-0.866,0.255-1.325,0.255s-0.899-0.085-1.318-0.255s-0.792-0.42-1.116-0.75c-0.325-0.33-0.582-0.734-0.771-1.215
		C52.531,24.427,52.436,23.882,52.436,23.271z M54.203,23.271c0,0.739,0.152,1.332,0.457,1.776c0.304,0.445,0.726,0.667,1.266,0.667
		c0.539,0,0.963-0.222,1.273-0.667c0.309-0.444,0.464-1.037,0.464-1.776c0-0.75-0.155-1.349-0.464-1.792
		c-0.31-0.445-0.734-0.667-1.273-0.667c-0.54,0-0.961,0.223-1.266,0.667C54.355,21.924,54.203,22.521,54.203,23.271z"/>
	<path fill="#FFFFFF" d="M60.313,19.581h1.737l0.884,3.825c0.08,0.351,0.147,0.699,0.202,1.05c0.055,0.351,0.117,0.705,0.188,1.065
		h0.06c0.07-0.36,0.143-0.715,0.217-1.065c0.075-0.351,0.157-0.699,0.247-1.05l0.958-3.825h1.573l0.974,3.825
		c0.09,0.351,0.174,0.699,0.254,1.05s0.16,0.705,0.24,1.065h0.06c0.069-0.36,0.135-0.715,0.194-1.065
		c0.06-0.351,0.125-0.699,0.195-1.05l0.884-3.825h1.618l-1.873,7.364h-2.052l-0.854-3.436c-0.08-0.35-0.155-0.697-0.225-1.042
		c-0.07-0.345-0.145-0.712-0.225-1.103h-0.06c-0.07,0.39-0.14,0.76-0.21,1.11c-0.07,0.351-0.145,0.701-0.225,1.05l-0.838,3.42
		h-1.977L60.313,19.581z"/>
	<path fill="#FFFFFF" d="M72.25,19.581h1.423l0.12,0.99h0.06c0.33-0.32,0.687-0.595,1.071-0.825
		c0.384-0.229,0.832-0.345,1.341-0.345c0.789,0,1.363,0.252,1.722,0.757c0.359,0.505,0.539,1.228,0.539,2.167v4.62h-1.722V22.55
		c0-0.61-0.09-1.04-0.27-1.29c-0.18-0.25-0.475-0.375-0.884-0.375c-0.32,0-0.602,0.078-0.846,0.232
		c-0.245,0.155-0.522,0.383-0.831,0.683v5.146H72.25V19.581z"/>
	<path fill="#FFFFFF" d="M80.638,16.356h1.723v8.791c0,0.209,0.04,0.356,0.12,0.441s0.165,0.127,0.254,0.127c0.04,0,0.078,0,0.112,0
		c0.035,0,0.087-0.01,0.158-0.029l0.225,1.291c-0.23,0.1-0.535,0.148-0.914,0.148c-0.62,0-1.054-0.186-1.303-0.555
		c-0.249-0.37-0.375-0.875-0.375-1.516V16.356z"/>
	<path fill="#FFFFFF" d="M84.217,23.271c0-0.61,0.095-1.155,0.284-1.636c0.19-0.479,0.447-0.885,0.771-1.215
		c0.324-0.33,0.696-0.583,1.116-0.758c0.419-0.175,0.859-0.262,1.318-0.262s0.901,0.087,1.325,0.262
		c0.424,0.175,0.796,0.428,1.116,0.758s0.577,0.735,0.771,1.215c0.194,0.48,0.292,1.025,0.292,1.636
		c0,0.609-0.097,1.154-0.292,1.635c-0.195,0.479-0.452,0.885-0.771,1.215s-0.691,0.58-1.116,0.75
		c-0.425,0.17-0.866,0.255-1.325,0.255s-0.899-0.085-1.318-0.255c-0.419-0.17-0.792-0.42-1.116-0.75
		c-0.325-0.33-0.582-0.734-0.771-1.215C84.312,24.427,84.217,23.882,84.217,23.271z M85.984,23.271c0,0.739,0.152,1.332,0.457,1.776
		c0.304,0.445,0.726,0.667,1.266,0.667c0.539,0,0.963-0.222,1.273-0.667c0.309-0.444,0.464-1.037,0.464-1.776
		c0-0.75-0.155-1.349-0.464-1.792c-0.31-0.445-0.734-0.667-1.273-0.667c-0.54,0-0.961,0.223-1.266,0.667
		C86.137,21.924,85.984,22.521,85.984,23.271z"/>
	<path fill="#FFFFFF" d="M92.425,24.966c0-0.789,0.345-1.399,1.033-1.83c0.689-0.429,1.788-0.729,3.295-0.899
		c0-0.19-0.025-0.373-0.075-0.547c-0.05-0.174-0.127-0.33-0.232-0.465c-0.105-0.135-0.24-0.24-0.404-0.315
		c-0.165-0.075-0.372-0.112-0.622-0.112c-0.37,0-0.727,0.07-1.071,0.21c-0.345,0.14-0.677,0.31-0.996,0.51l-0.629-1.155
		c0.41-0.26,0.866-0.485,1.371-0.675c0.504-0.19,1.051-0.285,1.64-0.285c0.929,0,1.618,0.272,2.067,0.817
		c0.449,0.545,0.674,1.333,0.674,2.362v4.365h-1.408l-0.135-0.811h-0.045c-0.33,0.279-0.682,0.516-1.056,0.704
		c-0.375,0.19-0.781,0.285-1.221,0.285c-0.649,0-1.176-0.196-1.58-0.592C92.627,26.139,92.425,25.616,92.425,24.966z M94.102,24.831
		c0,0.33,0.098,0.569,0.292,0.721c0.194,0.149,0.446,0.226,0.756,0.226c0.299,0,0.574-0.07,0.824-0.211
		c0.25-0.14,0.509-0.34,0.779-0.601v-1.649c-0.5,0.061-0.919,0.141-1.258,0.24c-0.339,0.101-0.612,0.213-0.816,0.338
		c-0.204,0.125-0.352,0.268-0.442,0.428C94.147,24.48,94.102,24.65,94.102,24.831z"/>
	<path fill="#FFFFFF" d="M100.123,23.271c0-0.601,0.087-1.141,0.262-1.621c0.174-0.48,0.407-0.885,0.696-1.215
		c0.29-0.33,0.622-0.585,0.996-0.765c0.375-0.18,0.761-0.27,1.161-0.27c0.419,0,0.774,0.073,1.063,0.217
		c0.29,0.145,0.579,0.343,0.868,0.593l-0.06-1.185v-2.67h1.722v10.589h-1.422l-0.119-0.795h-0.062
		c-0.27,0.271-0.584,0.5-0.942,0.689c-0.36,0.189-0.739,0.285-1.139,0.285c-0.929,0-1.665-0.337-2.209-1.012
		C100.395,25.438,100.123,24.491,100.123,23.271z M101.905,23.257c0,0.8,0.142,1.407,0.427,1.822s0.697,0.622,1.236,0.622
		c0.549,0,1.063-0.274,1.543-0.825v-3.435c-0.26-0.23-0.512-0.39-0.758-0.48c-0.244-0.09-0.492-0.135-0.742-0.135
		c-0.479,0-0.884,0.21-1.213,0.63S101.905,22.476,101.905,23.257z"/>
	<path fill="#FFFFFF" d="M115.85,17.721c-0.271-0.12-0.539-0.18-0.81-0.18c-0.619,0-0.929,0.415-0.929,1.245v0.795h1.438v1.365
		h-1.438v6h-1.723v-6H111.4v-1.29l0.988-0.075v-0.765c0-0.38,0.045-0.732,0.135-1.058c0.09-0.325,0.233-0.605,0.435-0.84
		s0.452-0.417,0.757-0.548c0.305-0.13,0.676-0.195,1.115-0.195c0.26,0,0.507,0.025,0.74,0.075c0.234,0.05,0.438,0.11,0.606,0.18
		L115.85,17.721z"/>
	<path fill="#FFFFFF" d="M116.208,23.271c0-0.61,0.095-1.155,0.284-1.636c0.189-0.479,0.447-0.885,0.771-1.215
		c0.323-0.33,0.695-0.583,1.115-0.758c0.419-0.175,0.857-0.262,1.316-0.262s0.902,0.087,1.326,0.262
		c0.424,0.175,0.797,0.428,1.115,0.758c0.319,0.33,0.577,0.735,0.771,1.215c0.193,0.48,0.292,1.025,0.292,1.636
		c0,0.609-0.099,1.154-0.292,1.635c-0.194,0.479-0.452,0.885-0.771,1.215c-0.318,0.33-0.691,0.58-1.115,0.75
		s-0.867,0.255-1.326,0.255s-0.897-0.085-1.316-0.255c-0.42-0.17-0.792-0.42-1.115-0.75c-0.324-0.33-0.582-0.734-0.771-1.215
		C116.303,24.427,116.208,23.882,116.208,23.271z M117.977,23.271c0,0.739,0.15,1.332,0.455,1.776
		c0.305,0.445,0.728,0.667,1.267,0.667c0.538,0,0.964-0.222,1.272-0.667c0.309-0.444,0.465-1.037,0.465-1.776
		c0-0.75-0.154-1.349-0.465-1.792c-0.31-0.444-0.734-0.667-1.272-0.667c-0.539,0-0.962,0.223-1.267,0.667
		S117.977,22.521,117.977,23.271z"/>
	<path fill="#FFFFFF" d="M124.91,19.581h1.423l0.119,1.305h0.062c0.258-0.479,0.572-0.848,0.942-1.103
		c0.369-0.255,0.749-0.382,1.138-0.382c0.35,0,0.631,0.05,0.84,0.15l-0.3,1.5c-0.13-0.04-0.25-0.07-0.36-0.09
		c-0.108-0.02-0.244-0.03-0.403-0.03c-0.289,0-0.595,0.113-0.913,0.337c-0.32,0.225-0.596,0.618-0.824,1.178v4.5h-1.722
		L124.91,19.581L124.91,19.581z"/>
	<path fill="#FFFFFF" d="M134.436,18.292c-0.311,0-0.564-0.09-0.765-0.27s-0.3-0.415-0.3-0.705s0.1-0.527,0.3-0.712
		c0.199-0.185,0.454-0.278,0.765-0.278c0.31,0,0.563,0.093,0.764,0.278c0.199,0.185,0.3,0.422,0.3,0.712s-0.101,0.525-0.3,0.705
		C134.999,18.201,134.744,18.292,134.436,18.292z M133.566,19.581h1.722v7.364h-1.722V19.581z"/>
	<path fill="#FFFFFF" d="M141.443,27.126c-0.639,0-1.223-0.117-1.752-0.353c-0.529-0.234-0.983-0.574-1.363-1.021
		c-0.379-0.444-0.674-0.981-0.883-1.612c-0.211-0.631-0.315-1.345-0.315-2.146c0-0.79,0.104-1.497,0.315-2.122
		c0.209-0.625,0.504-1.153,0.883-1.583c0.38-0.43,0.834-0.76,1.363-0.99s1.113-0.345,1.752-0.345c0.64,0,1.224,0.115,1.752,0.345
		c0.529,0.23,0.986,0.56,1.371,0.99s0.682,0.958,0.892,1.583c0.209,0.625,0.313,1.333,0.313,2.122c0,0.8-0.104,1.515-0.313,2.146
		c-0.21,0.631-0.507,1.168-0.892,1.612c-0.385,0.445-0.842,0.785-1.371,1.021C142.667,27.009,142.083,27.126,141.443,27.126z
		 M141.443,25.611c0.39,0,0.738-0.086,1.049-0.256c0.31-0.17,0.574-0.412,0.794-0.728s0.39-0.694,0.509-1.14
		c0.12-0.445,0.18-0.943,0.18-1.493c0-1.1-0.227-1.962-0.681-2.587c-0.455-0.625-1.071-0.938-1.851-0.938
		c-0.778,0-1.396,0.313-1.851,0.938c-0.454,0.625-0.681,1.488-0.681,2.587c0,0.55,0.061,1.048,0.18,1.493s0.289,0.824,0.51,1.14
		c0.219,0.313,0.483,0.558,0.793,0.728C140.705,25.525,141.055,25.611,141.443,25.611z"/>
	<path fill="#FFFFFF" d="M148.079,24.501c0.349,0.33,0.749,0.599,1.198,0.804c0.449,0.204,0.897,0.307,1.348,0.307
		c0.559,0,0.982-0.114,1.273-0.344c0.289-0.23,0.434-0.535,0.434-0.916c0-0.199-0.037-0.369-0.111-0.511
		c-0.074-0.14-0.181-0.262-0.314-0.366c-0.135-0.105-0.295-0.203-0.479-0.293c-0.185-0.091-0.387-0.181-0.606-0.271l-1.348-0.585
		c-0.238-0.1-0.477-0.225-0.711-0.375c-0.234-0.15-0.447-0.33-0.637-0.54s-0.343-0.455-0.457-0.735
		c-0.115-0.28-0.172-0.6-0.172-0.96c0-0.39,0.082-0.752,0.247-1.087c0.164-0.335,0.392-0.627,0.681-0.877
		c0.29-0.25,0.637-0.445,1.041-0.585s0.848-0.21,1.326-0.21c0.568,0,1.118,0.113,1.646,0.338s0.983,0.527,1.362,0.907l-0.884,1.11
		c-0.318-0.26-0.648-0.465-0.988-0.615c-0.339-0.15-0.719-0.225-1.138-0.225c-0.47,0-0.845,0.103-1.124,0.308
		c-0.279,0.205-0.419,0.487-0.419,0.848c0,0.19,0.042,0.353,0.127,0.487c0.085,0.135,0.2,0.255,0.345,0.36s0.312,0.2,0.502,0.285
		c0.189,0.085,0.385,0.167,0.584,0.248l1.334,0.555c0.288,0.12,0.553,0.26,0.793,0.42c0.239,0.16,0.446,0.345,0.621,0.555
		c0.176,0.21,0.312,0.453,0.412,0.728c0.1,0.275,0.148,0.594,0.148,0.952c0,0.4-0.079,0.775-0.238,1.125
		c-0.16,0.351-0.393,0.658-0.695,0.923c-0.306,0.267-0.675,0.477-1.109,0.631c-0.434,0.154-0.926,0.231-1.475,0.231
		c-0.66,0-1.296-0.125-1.91-0.375c-0.613-0.25-1.156-0.604-1.625-1.063L148.079,24.501z"/>
</g>
<g>
	<path fill="#FFFFFF" d="M28.833,20.667c-0.024-2.844,2.325-4.226,2.432-4.29c-1.331-1.945-3.394-2.211-4.118-2.231
		c-1.732-0.182-3.413,1.039-4.294,1.039c-0.899,0-2.258-1.02-3.725-0.99c-1.884,0.03-3.646,1.122-4.612,2.819
		c-1.996,3.458-0.508,8.544,1.404,11.341c0.957,1.369,2.074,2.897,3.535,2.844c1.432-0.057,1.967-0.912,3.694-0.912
		c1.711,0,2.214,0.912,3.705,0.878c1.536-0.022,2.503-1.376,3.426-2.759c1.104-1.567,1.547-3.114,1.566-3.195
		C31.81,25.198,28.863,24.07,28.833,20.667z"/>
	<path fill="#FFFFFF" d="M26.014,12.307c0.771-0.964,1.298-2.274,1.15-3.606c-1.113,0.051-2.507,0.771-3.308,1.715
		c-0.71,0.829-1.343,2.191-1.179,3.474C23.929,13.983,25.213,13.257,26.014,12.307z"/>
</g>
</svg>
