<?xml version="1.0" encoding="utf-8"?>
<!-- Generator: Adobe Illustrator 16.0.4, SVG Export Plug-In . SVG Version: 6.00 Build 0)  -->
<!DOCTYPE svg PUBLIC "-//W3C//DTD SVG 1.1//EN" "http://www.w3.org/Graphics/SVG/1.1/DTD/svg11.dtd">
<svg version="1.1" id="Ebene_1" xmlns="http://www.w3.org/2000/svg" xmlns:xlink="http://www.w3.org/1999/xlink" x="0px" y="0px"
	 width="207px" height="45px" viewBox="0 0 207 45" enable-background="new 0 0 207 45" xml:space="preserve">
<path fill="#8BB6D4" d="M201.688,0H5.313C2.385,0,0,2.387,0,5.319v34.369C0,42.618,2.385,45,5.313,45h196.375
	c2.926,0,5.313-2.382,5.312-5.312V5.319C207,2.387,204.611,0,201.688,0z"/>
<g>
	<path fill="#FFFFFF" d="M43.704,17.137h2.621c1.498,0,2.666,0.404,3.504,1.215c0.84,0.81,1.259,2.024,1.259,3.645
		c0,0.811-0.107,1.524-0.322,2.146c-0.215,0.621-0.524,1.14-0.929,1.553c-0.404,0.414-0.894,0.729-1.468,0.938
		c-0.574,0.21-1.226,0.315-1.954,0.315h-2.711V17.137z M46.205,25.536c0.999,0,1.765-0.287,2.3-0.862
		c0.533-0.574,0.801-1.468,0.801-2.678c0-1.2-0.27-2.075-0.809-2.625c-0.54-0.55-1.303-0.825-2.292-0.825h-0.764v6.99H46.205z"/>
	<path fill="#FFFFFF" d="M52.436,23.271c0-0.61,0.095-1.155,0.284-1.637c0.19-0.479,0.447-0.886,0.771-1.216
		c0.325-0.33,0.697-0.582,1.116-0.757c0.419-0.175,0.858-0.263,1.317-0.263c0.46,0,0.901,0.088,1.326,0.263
		c0.424,0.175,0.796,0.427,1.116,0.757c0.319,0.33,0.576,0.735,0.771,1.216c0.195,0.479,0.293,1.024,0.293,1.637
		c0,0.609-0.098,1.153-0.293,1.635c-0.194,0.479-0.451,0.885-0.771,1.215c-0.32,0.33-0.692,0.58-1.116,0.75
		c-0.425,0.17-0.866,0.255-1.326,0.255c-0.459,0-0.898-0.085-1.317-0.255s-0.791-0.42-1.116-0.75
		c-0.324-0.33-0.581-0.734-0.771-1.215C52.53,24.427,52.436,23.882,52.436,23.271z M54.203,23.271c0,0.738,0.151,1.332,0.456,1.775
		c0.305,0.445,0.727,0.667,1.266,0.667c0.54,0,0.964-0.222,1.273-0.667c0.309-0.443,0.465-1.037,0.465-1.775
		c0-0.75-0.155-1.35-0.465-1.793c-0.31-0.444-0.733-0.667-1.273-0.667c-0.539,0-0.961,0.223-1.266,0.667
		C54.354,21.924,54.203,22.521,54.203,23.271z"/>
	<path fill="#FFFFFF" d="M60.313,19.581h1.737l0.884,3.825c0.08,0.351,0.147,0.699,0.202,1.05c0.055,0.351,0.117,0.705,0.188,1.065
		h0.06c0.07-0.36,0.143-0.715,0.218-1.065c0.074-0.351,0.157-0.699,0.247-1.05l0.958-3.825h1.573l0.974,3.825
		c0.09,0.351,0.174,0.699,0.254,1.05s0.16,0.705,0.239,1.065h0.061c0.069-0.36,0.135-0.715,0.194-1.065
		c0.061-0.351,0.125-0.699,0.195-1.05l0.884-3.825h1.617l-1.872,7.364h-2.052L66.02,23.51c-0.081-0.351-0.155-0.698-0.225-1.043
		c-0.07-0.345-0.146-0.713-0.226-1.103h-0.06c-0.069,0.39-0.14,0.76-0.21,1.11c-0.069,0.35-0.145,0.7-0.225,1.049l-0.838,3.42
		h-1.978L60.313,19.581z"/>
	<path fill="#FFFFFF" d="M72.251,19.581h1.422l0.12,0.99h0.061c0.329-0.32,0.686-0.595,1.07-0.825
		c0.384-0.229,0.831-0.345,1.341-0.345c0.788,0,1.362,0.253,1.722,0.758c0.36,0.505,0.539,1.228,0.539,2.167v4.619h-1.723V22.55
		c0-0.61-0.089-1.04-0.27-1.29c-0.179-0.25-0.474-0.375-0.883-0.375c-0.32,0-0.602,0.077-0.847,0.232
		c-0.245,0.155-0.521,0.382-0.831,0.683v5.146H72.25L72.251,19.581L72.251,19.581z"/>
	<path fill="#FFFFFF" d="M80.638,16.356h1.722v8.791c0,0.209,0.04,0.356,0.12,0.441s0.165,0.127,0.255,0.127c0.04,0,0.077,0,0.112,0
		c0.034,0,0.087-0.01,0.157-0.029l0.225,1.291c-0.229,0.101-0.534,0.148-0.914,0.148c-0.619,0-1.054-0.186-1.303-0.555
		c-0.25-0.37-0.374-0.875-0.374-1.516V16.356z"/>
	<path fill="#FFFFFF" d="M84.217,23.271c0-0.61,0.095-1.155,0.284-1.637c0.19-0.479,0.447-0.886,0.771-1.216
		c0.325-0.33,0.697-0.582,1.116-0.757c0.419-0.175,0.858-0.263,1.317-0.263c0.46,0,0.901,0.088,1.326,0.263
		c0.424,0.175,0.796,0.427,1.116,0.757c0.319,0.33,0.576,0.735,0.771,1.216c0.195,0.479,0.292,1.024,0.292,1.637
		c0,0.609-0.097,1.153-0.292,1.635c-0.194,0.479-0.451,0.885-0.771,1.215s-0.692,0.58-1.116,0.75
		c-0.425,0.17-0.866,0.255-1.326,0.255c-0.459,0-0.898-0.085-1.317-0.255c-0.419-0.17-0.791-0.42-1.116-0.75
		c-0.324-0.33-0.581-0.734-0.771-1.215C84.312,24.427,84.217,23.882,84.217,23.271z M85.984,23.271c0,0.738,0.151,1.332,0.456,1.775
		c0.305,0.445,0.727,0.667,1.266,0.667c0.54,0,0.964-0.222,1.273-0.667c0.309-0.443,0.465-1.037,0.465-1.775
		c0-0.75-0.155-1.35-0.465-1.793s-0.733-0.667-1.273-0.667c-0.539,0-0.961,0.223-1.266,0.667
		C86.136,21.924,85.984,22.521,85.984,23.271z"/>
	<path fill="#FFFFFF" d="M92.425,24.966c0-0.789,0.344-1.399,1.033-1.829c0.688-0.431,1.787-0.729,3.295-0.9
		c0-0.189-0.025-0.372-0.075-0.548c-0.05-0.175-0.127-0.33-0.231-0.465c-0.105-0.135-0.24-0.24-0.405-0.314
		c-0.164-0.075-0.372-0.113-0.621-0.113c-0.369,0-0.727,0.07-1.07,0.21c-0.345,0.141-0.677,0.311-0.996,0.511l-0.629-1.155
		c0.408-0.26,0.865-0.485,1.37-0.675c0.504-0.19,1.051-0.285,1.64-0.285c0.929,0,1.617,0.272,2.067,0.817
		c0.449,0.545,0.674,1.333,0.674,2.362v4.365h-1.408l-0.135-0.812h-0.045c-0.329,0.279-0.682,0.517-1.056,0.704
		c-0.375,0.189-0.781,0.285-1.221,0.285c-0.649,0-1.176-0.195-1.58-0.592C92.627,26.139,92.425,25.616,92.425,24.966z
		 M94.102,24.831c0,0.33,0.098,0.569,0.292,0.721c0.195,0.149,0.447,0.226,0.757,0.226c0.3,0,0.574-0.069,0.823-0.211
		c0.25-0.14,0.51-0.34,0.779-0.601v-1.649c-0.499,0.062-0.919,0.142-1.258,0.24c-0.34,0.102-0.612,0.213-0.816,0.338
		c-0.205,0.125-0.352,0.269-0.441,0.429C94.146,24.48,94.102,24.65,94.102,24.831z"/>
	<path fill="#FFFFFF" d="M100.123,23.271c0-0.603,0.087-1.143,0.262-1.622c0.175-0.48,0.406-0.885,0.696-1.215
		s0.622-0.585,0.996-0.766c0.374-0.18,0.761-0.27,1.161-0.27c0.419,0,0.774,0.072,1.063,0.218c0.289,0.145,0.579,0.343,0.868,0.592
		l-0.06-1.185v-2.67h1.723v10.589h-1.424l-0.119-0.795h-0.061c-0.271,0.271-0.584,0.5-0.943,0.688
		c-0.359,0.19-0.739,0.285-1.139,0.285c-0.928,0-1.665-0.337-2.209-1.013C100.395,25.438,100.123,24.491,100.123,23.271z
		 M101.905,23.256c0,0.801,0.142,1.408,0.427,1.823c0.284,0.415,0.696,0.622,1.235,0.622c0.549,0,1.063-0.274,1.542-0.825v-3.435
		c-0.26-0.23-0.512-0.39-0.756-0.48c-0.246-0.09-0.494-0.135-0.743-0.135c-0.479,0-0.884,0.21-1.214,0.63
		C102.069,21.876,101.905,22.477,101.905,23.256z"/>
	<path fill="#FFFFFF" d="M115.85,17.722c-0.271-0.12-0.539-0.181-0.811-0.181c-0.618,0-0.93,0.415-0.93,1.245v0.795h1.438v1.365
		h-1.438v6h-1.721v-6H111.4v-1.29l0.988-0.075v-0.765c0-0.38,0.045-0.732,0.135-1.058c0.09-0.326,0.232-0.604,0.435-0.84
		c0.199-0.235,0.452-0.418,0.757-0.548s0.676-0.194,1.115-0.194c0.26,0,0.508,0.024,0.74,0.074c0.234,0.051,0.438,0.11,0.605,0.181
		L115.85,17.722z"/>
	<path fill="#FFFFFF" d="M116.208,23.271c0-0.61,0.095-1.155,0.284-1.637c0.189-0.479,0.447-0.886,0.771-1.216
		c0.322-0.33,0.694-0.582,1.114-0.757c0.419-0.175,0.856-0.263,1.317-0.263c0.457,0,0.9,0.088,1.324,0.263
		c0.424,0.175,0.797,0.427,1.117,0.757c0.317,0.33,0.574,0.735,0.771,1.216c0.193,0.479,0.292,1.024,0.292,1.637
		c0,0.609-0.099,1.153-0.292,1.635c-0.195,0.479-0.452,0.885-0.771,1.215c-0.32,0.33-0.693,0.58-1.117,0.75
		s-0.867,0.255-1.324,0.255c-0.461,0-0.898-0.085-1.317-0.255c-0.42-0.17-0.792-0.42-1.114-0.75
		c-0.324-0.33-0.582-0.734-0.771-1.215C116.303,24.427,116.208,23.882,116.208,23.271z M117.975,23.271
		c0,0.738,0.152,1.332,0.459,1.775c0.303,0.445,0.727,0.667,1.267,0.667c0.536,0,0.963-0.222,1.271-0.667
		c0.309-0.443,0.465-1.037,0.465-1.775c0-0.75-0.156-1.35-0.465-1.793c-0.31-0.444-0.734-0.667-1.271-0.667
		c-0.54,0-0.964,0.223-1.267,0.667C118.127,21.924,117.975,22.521,117.975,23.271z"/>
	<path fill="#FFFFFF" d="M124.91,19.581h1.422l0.12,1.306h0.06c0.26-0.48,0.574-0.848,0.944-1.103
		c0.368-0.256,0.748-0.383,1.14-0.383c0.348,0,0.627,0.05,0.838,0.15l-0.301,1.5c-0.13-0.04-0.25-0.07-0.357-0.091
		c-0.109-0.02-0.246-0.029-0.404-0.029c-0.289,0-0.596,0.112-0.913,0.337c-0.319,0.226-0.597,0.618-0.824,1.178v4.5h-1.722
		L124.91,19.581L124.91,19.581z"/>
	<path fill="#FFFFFF" d="M132.742,17.137h1.783l0.854,4.949c0.079,0.53,0.159,1.057,0.239,1.575c0.08,0.521,0.159,1.04,0.239,1.562
		h0.06c0.11-0.521,0.218-1.043,0.322-1.568c0.104-0.523,0.213-1.046,0.321-1.566l1.198-4.949h1.513l1.199,4.949
		c0.107,0.511,0.219,1.028,0.328,1.555c0.109,0.523,0.221,1.053,0.329,1.582h0.062c0.08-0.529,0.156-1.057,0.23-1.574
		c0.075-0.521,0.152-1.042,0.23-1.562l0.854-4.949h1.664l-1.873,9.81h-2.155l-1.213-5.16c-0.08-0.38-0.158-0.758-0.232-1.133
		s-0.143-0.752-0.202-1.132h-0.06c-0.069,0.38-0.144,0.757-0.219,1.132c-0.072,0.375-0.15,0.753-0.23,1.133l-1.186,5.16h-2.109
		L132.742,17.137z"/>
	<path fill="#FFFFFF" d="M146.416,18.291c-0.309,0-0.564-0.09-0.764-0.27c-0.199-0.181-0.301-0.415-0.301-0.705
		s0.102-0.527,0.301-0.713c0.199-0.185,0.455-0.277,0.764-0.277c0.311,0,0.564,0.093,0.764,0.277c0.2,0.186,0.301,0.423,0.301,0.713
		s-0.101,0.524-0.301,0.705C146.98,18.201,146.727,18.291,146.416,18.291z M145.547,19.581h1.723v7.364h-1.723V19.581z"/>
	<path fill="#FFFFFF" d="M149.473,19.581h1.422l0.121,0.99h0.061c0.328-0.32,0.688-0.595,1.068-0.825
		c0.385-0.229,0.832-0.345,1.342-0.345c0.789,0,1.363,0.253,1.724,0.758c0.358,0.505,0.538,1.228,0.538,2.167v4.619h-1.723V22.55
		c0-0.61-0.09-1.04-0.27-1.29s-0.475-0.375-0.884-0.375c-0.32,0-0.603,0.077-0.847,0.232c-0.246,0.155-0.522,0.382-0.832,0.683
		v5.146h-1.723v-7.364H149.473z"/>
	<path fill="#FFFFFF" d="M157.41,23.271c0-0.603,0.087-1.143,0.261-1.622c0.177-0.48,0.408-0.885,0.696-1.215
		c0.291-0.33,0.621-0.585,0.996-0.766c0.375-0.18,0.762-0.27,1.16-0.27c0.42,0,0.773,0.072,1.062,0.218
		c0.29,0.145,0.578,0.343,0.869,0.592l-0.062-1.185v-2.67h1.725v10.589h-1.424l-0.119-0.795h-0.061
		c-0.271,0.271-0.584,0.5-0.943,0.688c-0.358,0.19-0.737,0.285-1.139,0.285c-0.929,0-1.666-0.337-2.209-1.013
		C157.682,25.438,157.41,24.491,157.41,23.271z M159.191,23.256c0,0.801,0.143,1.408,0.427,1.823s0.696,0.622,1.235,0.622
		c0.551,0,1.062-0.274,1.543-0.825v-3.435c-0.26-0.23-0.513-0.39-0.758-0.48c-0.242-0.09-0.49-0.135-0.74-0.135
		c-0.479,0-0.883,0.21-1.213,0.63S159.191,22.477,159.191,23.256z"/>
	<path fill="#FFFFFF" d="M165.827,23.271c0-0.61,0.095-1.155,0.284-1.637c0.188-0.479,0.447-0.886,0.771-1.216
		c0.326-0.33,0.697-0.582,1.116-0.757c0.42-0.175,0.859-0.263,1.316-0.263c0.461,0,0.9,0.088,1.326,0.263
		c0.426,0.175,0.797,0.427,1.115,0.757c0.319,0.33,0.577,0.735,0.771,1.216c0.195,0.479,0.293,1.024,0.293,1.637
		c0,0.609-0.098,1.153-0.293,1.635c-0.193,0.479-0.451,0.885-0.771,1.215s-0.689,0.58-1.115,0.75s-0.865,0.255-1.326,0.255
		c-0.457,0-0.896-0.085-1.316-0.255c-0.419-0.17-0.79-0.42-1.116-0.75c-0.323-0.33-0.581-0.734-0.771-1.215
		C165.922,24.427,165.827,23.882,165.827,23.271z M167.594,23.271c0,0.738,0.152,1.332,0.456,1.775
		c0.306,0.445,0.728,0.667,1.267,0.667s0.963-0.222,1.272-0.667c0.312-0.443,0.466-1.037,0.466-1.775c0-0.75-0.154-1.35-0.466-1.793
		c-0.31-0.444-0.733-0.667-1.272-0.667s-0.961,0.223-1.267,0.667C167.746,21.924,167.594,22.521,167.594,23.271z"/>
	<path fill="#FFFFFF" d="M173.704,19.581h1.737l0.884,3.825c0.079,0.351,0.147,0.699,0.202,1.05s0.117,0.705,0.188,1.065h0.061
		c0.07-0.36,0.144-0.715,0.218-1.065c0.075-0.351,0.157-0.699,0.248-1.05l0.958-3.825h1.572l0.974,3.825
		c0.09,0.351,0.176,0.699,0.256,1.05s0.159,0.705,0.237,1.065h0.062c0.069-0.36,0.136-0.715,0.194-1.065
		c0.062-0.351,0.125-0.699,0.193-1.05l0.886-3.825h1.616l-1.873,7.364h-2.051l-0.854-3.436c-0.081-0.351-0.156-0.698-0.227-1.043
		c-0.069-0.345-0.146-0.713-0.227-1.103h-0.061c-0.068,0.39-0.139,0.76-0.209,1.11c-0.069,0.35-0.146,0.7-0.226,1.049l-0.839,3.42
		h-1.979L173.704,19.581z"/>
	<path fill="#FFFFFF" d="M185.717,24.996c0.329,0.261,0.656,0.463,0.98,0.607c0.324,0.146,0.677,0.217,1.056,0.217
		c0.399,0,0.692-0.081,0.884-0.246c0.189-0.165,0.284-0.379,0.284-0.639c0-0.149-0.045-0.281-0.135-0.396
		c-0.091-0.115-0.209-0.219-0.358-0.309c-0.15-0.09-0.32-0.172-0.51-0.248c-0.189-0.073-0.38-0.151-0.568-0.231
		c-0.24-0.09-0.483-0.194-0.733-0.313c-0.249-0.121-0.472-0.266-0.666-0.437c-0.194-0.17-0.354-0.367-0.479-0.592
		c-0.125-0.226-0.188-0.493-0.188-0.803c0-0.65,0.238-1.18,0.72-1.59c0.479-0.41,1.136-0.615,1.962-0.615
		c0.51,0,0.969,0.09,1.377,0.27c0.409,0.181,0.766,0.386,1.062,0.615l-0.793,1.05c-0.26-0.189-0.521-0.342-0.785-0.457
		c-0.266-0.115-0.542-0.173-0.832-0.173c-0.368,0-0.643,0.078-0.816,0.232c-0.174,0.155-0.262,0.348-0.262,0.578
		c0,0.149,0.043,0.277,0.128,0.382s0.196,0.198,0.336,0.278c0.142,0.08,0.304,0.154,0.487,0.225c0.184,0.071,0.377,0.14,0.574,0.21
		c0.25,0.09,0.5,0.192,0.75,0.308c0.25,0.115,0.479,0.258,0.683,0.429c0.205,0.17,0.369,0.377,0.494,0.621
		c0.125,0.245,0.188,0.538,0.188,0.879c0,0.318-0.062,0.616-0.188,0.894c-0.125,0.272-0.308,0.515-0.547,0.72
		s-0.538,0.367-0.898,0.487c-0.358,0.118-0.771,0.18-1.229,0.18c-0.51,0-1.012-0.099-1.504-0.292
		c-0.496-0.193-0.922-0.438-1.28-0.729L185.717,24.996z"/>
</g>
<path fill="#FFFFFF" d="M32.147,21.987l-10.519,0.084v-7.79l10.519-1.538V21.987z M12.744,22.917v6.629l7.929,1.093l-0.005-7.671
	L12.744,22.917z M12.738,15.504l0.008,6.626l7.929-0.046l-0.004-7.661L12.738,15.504z M21.614,23.021l0.015,7.732l10.519,1.487
	l0.002-9.202L21.614,23.021z"/>
</svg>
